<?xml version="1.0" encoding="UTF-8"?>
<svg width="600" height="400" viewBox="0 0 600 400" fill="none" xmlns="http://www.w3.org/2000/svg">
  <rect width="600" height="400" fill="#F9FAFB"/>
  <rect x="50" y="50" width="500" height="300" rx="10" fill="white" stroke="#E5E7EB" stroke-width="2"/>
  
  <!-- Dashboard elements -->
  <rect x="80" y="100" width="120" height="80" rx="8" fill="#0EA5E9" opacity="0.1"/>
  <rect x="220" y="100" width="120" height="80" rx="8" fill="#8B5CF6" opacity="0.1"/>
  <rect x="360" y="100" width="120" height="80" rx="8" fill="#F59E0B" opacity="0.1"/>
  
  <rect x="80" y="200" width="400" height="120" rx="8" fill="#F3F4F6"/>
  
  <!-- Header -->
  <rect x="80" y="70" width="150" height="10" rx="5" fill="#1F2937"/>
  
  <!-- Icons -->
  <circle cx="100" cy="140" r="10" fill="#0EA5E9"/>
  <circle cx="240" cy="140" r="10" fill="#8B5CF6"/>
  <circle cx="380" cy="140" r="10" fill="#F59E0B"/>
  
  <!-- Text lines -->
  <rect x="120" cy="130" width="60" height="6" rx="3" fill="#1F2937"/>
  <rect x="120" cy="145" width="40" height="6" rx="3" fill="#6B7280"/>
  
  <rect x="260" cy="130" width="60" height="6" rx="3" fill="#1F2937"/>
  <rect x="260" cy="145" width="40" height="6" rx="3" fill="#6B7280"/>
  
  <rect x="400" cy="130" width="60" height="6" rx="3" fill="#1F2937"/>
  <rect x="400" cy="145" width="40" height="6" rx="3" fill="#6B7280"/>
  
  <!-- Chart elements -->
  <rect x="100" y="220" width="360" height="80" rx="4" fill="white"/>
  <path d="M100 280 L150 250 L200 270 L250 230 L300 260 L350 240 L400 220 L450 250" stroke="#0EA5E9" stroke-width="2"/>
  
  <!-- Logo -->
  <rect x="500" y="60" width="30" height="30" rx="15" fill="#0EA5E9"/>
  <path d="M510 75 L520 65 L530 75" stroke="white" stroke-width="2"/>
</svg>
